<svg width="809" height="179" viewBox="0 0 809 179" fill="none" xmlns="http://www.w3.org/2000/svg">
<path d="M117.608 138.664H48.556L36.356 173.312H0L63.44 3H102.724L165.92 173.312H129.564L117.608 138.664ZM108.336 112.556L82.96 39.844L57.584 112.556H108.336Z" fill="#0F111B"/>
<path d="M231.093 36.428C247.522 36.428 260.698 40.576 270.621 48.872C280.543 57.168 286.725 68.2293 289.165 82.056H256.957C255.655 75.5493 252.727 70.344 248.173 66.44C243.618 62.536 237.681 60.584 230.361 60.584C224.505 60.584 219.95 61.9667 216.697 64.732C213.443 67.4973 211.817 71.2387 211.817 75.956C211.817 79.6973 213.118 82.7067 215.721 84.984C218.323 87.2613 221.577 89.0507 225.481 90.352C229.385 91.6533 234.997 93.1987 242.317 94.988C252.565 97.2653 260.861 99.7053 267.205 102.308C273.711 104.748 279.242 108.733 283.797 114.264C288.514 119.632 290.873 126.952 290.873 136.224C290.873 147.773 286.318 157.127 277.209 164.284C268.262 171.441 256.143 175.02 240.853 175.02C223.285 175.02 209.214 171.116 198.641 163.308C188.067 155.337 181.642 144.032 179.365 129.392H212.305C213.118 136.061 216.046 141.348 221.089 145.252C226.131 148.993 232.719 150.864 240.853 150.864C246.709 150.864 251.182 149.481 254.273 146.716C257.363 143.788 258.909 140.047 258.909 135.492C258.909 131.588 257.526 128.416 254.761 125.976C252.158 123.536 248.823 121.665 244.757 120.364C240.853 119.063 235.241 117.517 227.921 115.728C217.835 113.451 209.621 111.173 203.277 108.896C197.095 106.456 191.727 102.633 187.173 97.428C182.781 92.2227 180.585 85.0653 180.585 75.956C180.585 64.244 185.058 54.728 194.005 47.408C202.951 40.088 215.314 36.428 231.093 36.428Z" fill="#0F111B"/>
<path d="M363.101 36.428C379.53 36.428 392.706 40.576 402.629 48.872C412.551 57.168 418.733 68.2293 421.173 82.056H388.965C387.663 75.5493 384.735 70.344 380.181 66.44C375.626 62.536 369.689 60.584 362.369 60.584C356.513 60.584 351.958 61.9667 348.705 64.732C345.451 67.4973 343.825 71.2387 343.825 75.956C343.825 79.6973 345.126 82.7067 347.729 84.984C350.331 87.2613 353.585 89.0507 357.489 90.352C361.393 91.6533 367.005 93.1987 374.325 94.988C384.573 97.2653 392.869 99.7053 399.213 102.308C405.719 104.748 411.25 108.733 415.805 114.264C420.522 119.632 422.881 126.952 422.881 136.224C422.881 147.773 418.326 157.127 409.217 164.284C400.27 171.441 388.151 175.02 372.861 175.02C355.293 175.02 341.222 171.116 330.649 163.308C320.075 155.337 313.65 144.032 311.373 129.392H344.313C345.126 136.061 348.054 141.348 353.097 145.252C358.139 148.993 364.727 150.864 372.861 150.864C378.717 150.864 383.19 149.481 386.281 146.716C389.371 143.788 390.917 140.047 390.917 135.492C390.917 131.588 389.534 128.416 386.769 125.976C384.166 123.536 380.831 121.665 376.765 120.364C372.861 119.063 367.249 117.517 359.929 115.728C349.843 113.451 341.629 111.173 335.285 108.896C329.103 106.456 323.735 102.633 319.181 97.428C314.789 92.2227 312.593 85.0653 312.593 75.956C312.593 64.244 317.066 54.728 326.013 47.408C334.959 40.088 347.322 36.428 363.101 36.428Z" fill="#0F111B"/>
<path d="M501.452 36.428C512.839 36.428 522.599 39.112 530.732 44.48C538.866 49.848 544.64 57.0867 548.056 66.196V38.136H582.216V173.312H548.056V145.008C544.64 154.117 538.866 161.437 530.732 166.968C522.599 172.336 512.839 175.02 501.452 175.02C490.066 175.02 479.818 172.255 470.708 166.724C461.599 161.193 454.442 153.223 449.236 142.812C444.194 132.239 441.672 119.876 441.672 105.724C441.672 91.572 444.194 79.2907 449.236 68.88C454.442 58.3067 461.599 50.2547 470.708 44.724C479.818 39.1933 490.066 36.428 501.452 36.428ZM512.188 66.44C501.452 66.44 492.831 69.9373 486.324 76.932C479.818 83.9267 476.564 93.524 476.564 105.724C476.564 117.924 479.818 127.521 486.324 134.516C492.831 141.348 501.452 144.764 512.188 144.764C522.599 144.764 531.139 141.267 537.808 134.272C544.64 127.115 548.056 117.599 548.056 105.724C548.056 93.6867 544.64 84.1707 537.808 77.176C531.139 70.0187 522.599 66.44 512.188 66.44Z" fill="#0F111B"/>
<path d="M693.915 36.184C709.531 36.184 721.975 41.308 731.247 51.556C740.519 61.804 745.155 76.2 745.155 94.744V173.312H710.995V98.648C710.995 87.912 708.23 79.616 702.699 73.76C697.168 67.7413 689.604 64.732 680.007 64.732C670.247 64.732 662.439 67.904 656.583 74.248C650.727 80.592 647.799 89.7013 647.799 101.576V173.312H613.395V38.136H647.799V65.22C651.378 56.1107 657.234 49.0347 665.367 43.992C673.663 38.7867 683.179 36.184 693.915 36.184Z" fill="#0F111B"/>
<path d="M803.974 137.444V173.312H766.886V137.444H803.974Z" fill="#0F111B"/>
</svg>
